<svg xmlns="http://www.w3.org/2000/svg" width="119.028" height="157.156" viewBox="0 0 119.028 157.156"><g transform="translate(0)"><path d="M178.8,0H64.443a2.334,2.334,0,0,0-2.334,2.334V122.385a2.334,2.334,0,0,0,4.668,0V45.431h73.1a2.334,2.334,0,1,0,0-4.668h-73.1V4.668H176.469V40.763h-25.7a2.334,2.334,0,1,0,0,4.668h25.7V152.488H66.777V133.277a2.334,2.334,0,0,0-4.668,0v21.545a2.334,2.334,0,0,0,2.334,2.334H178.8a2.334,2.334,0,0,0,2.334-2.334V2.334A2.334,2.334,0,0,0,178.8,0Z" transform="translate(-62.109)" fill="#fff"/></g><g transform="translate(11.288 13.717)"><path d="M109.689,57.425c-.912,0-1.663.268-1.716,1.1-.081,1.126-.295,2.869-2.735,2.869-1.85,0-2.869-.992-2.869-3.084V50.828c0-2.092,1.019-3.084,2.815-3.084a2.485,2.485,0,0,1,2.789,2.655c.027.8.751,1.1,1.743,1.1,1.18,0,1.743-.322,1.743-1.716,0-3.111-2.655-5.095-6.382-5.095-3.379,0-6.194,1.662-6.194,6.14V58.31c0,4.478,2.789,6.14,6.167,6.14,3.754,0,6.409-2.065,6.409-5.309C111.459,57.773,110.9,57.425,109.689,57.425Z" transform="translate(-98.883 -44.688)" fill="#fff"/></g><g transform="translate(28.689 13.717)"><path d="M161.85,44.688c-3.54,0-6.275,1.662-6.275,6.14V58.31c0,4.478,2.735,6.14,6.275,6.14s6.3-1.662,6.3-6.14V50.828C168.151,46.35,165.389,44.688,161.85,44.688Zm2.816,13.622c0,2.118-1.072,3.084-2.815,3.084-1.77,0-2.789-.965-2.789-3.084V50.828c0-2.118,1.019-3.084,2.789-3.084,1.743,0,2.815.965,2.815,3.084Z" transform="translate(-155.575 -44.688)" fill="#fff"/></g><g transform="translate(46.922 13.717)"><path d="M228.759,44.688c-1.26,0-1.85.268-2.735,1.85l-3.3,6.007-3.3-6.007c-.885-1.582-1.448-1.85-2.708-1.85a1.6,1.6,0,0,0-1.743,1.743V63.19c0,.724.858,1.1,1.743,1.1.858,0,1.743-.376,1.743-1.1V51.445l3.084,5.792a1.237,1.237,0,0,0,1.153.7,1.274,1.274,0,0,0,1.18-.7l3.137-5.577V63.191c0,.724.858,1.1,1.743,1.1.858,0,1.743-.376,1.743-1.1V46.431A1.6,1.6,0,0,0,228.759,44.688Z" transform="translate(-214.976 -44.688)" fill="#fff"/></g><g transform="translate(68.346 13.716)"><g transform="translate(0)"><path d="M286.517,44.687c-.885,0-1.743.322-1.743,1.073v17.43c0,.724.858,1.1,1.743,1.1.858,0,1.743-.376,1.743-1.1V45.76C288.261,45.009,287.375,44.687,286.517,44.687Z" transform="translate(-284.774 -44.687)" fill="#fff"/></g></g><g transform="translate(77.543 13.717)"><g transform="translate(0)"><path d="M325.544,57.425c-.912,0-1.663.268-1.716,1.1-.081,1.126-.295,2.869-2.735,2.869-1.85,0-2.869-.992-2.869-3.084V50.828c0-2.092,1.019-3.084,2.815-3.084a2.484,2.484,0,0,1,2.789,2.655c.027.8.751,1.1,1.743,1.1,1.18,0,1.743-.322,1.743-1.716,0-3.111-2.655-5.095-6.382-5.095-3.379,0-6.194,1.662-6.194,6.14V58.31c0,4.478,2.789,6.14,6.167,6.14,3.754,0,6.409-2.065,6.409-5.309C327.314,57.773,326.751,57.425,325.544,57.425Z" transform="translate(-314.738 -44.688)" fill="#fff"/></g></g><g transform="translate(94.194 13.583)"><path d="M372.953,49.293c0-1.287,1.1-2.065,3.03-2.065,2.252,0,2.869,1.019,3.7,1.019.965,0,1.394-1.234,1.394-1.85,0-1.77-3.512-2.145-5.095-2.145-3.084,0-6.516,1.367-6.516,5.363,0,6.355,8.607,5.122,8.607,9.144,0,1.609-1.394,2.333-3,2.333-2.735,0-3.459-2.065-4.558-2.065-.831,0-1.528,1.126-1.528,1.877,0,1.555,2.681,3.325,6.194,3.325,3.7,0,6.382-1.984,6.382-5.819C381.561,51.464,372.953,52.618,372.953,49.293Z" transform="translate(-368.985 -44.251)" fill="#fff"/></g><g transform="translate(6.384 51.032)"><g transform="translate(0)"><path d="M184.355,211.323a2.334,2.334,0,0,0-2.122-2.09c-9.55-.822-15.211-3.174-17.306-7.19-3.3-6.334,1.7-17.488,10.24-32.286a2.334,2.334,0,0,0-3.673-2.817c-13.31,13.311-25.618,19.757-33.764,17.687-4.864-1.236-8.408-5.5-10.534-12.686a2.334,2.334,0,0,0-4.542.292c-.378,2.352-.711,4.592-1,6.567-1.25,8.433-2.153,14.525-4.658,15.8-2.677,1.365-9.168-1.7-13.818-4.124a2.334,2.334,0,0,0-2.994,3.4c3,4.3,6.869,10.348,5.858,13.177-.947,2.649-6.874,4.324-15.077,6.643-1.922.543-4.1,1.159-6.385,1.835a2.334,2.334,0,0,0,.292,4.542c7.069,1.138,11.269,3.212,12.841,6.343,2.74,5.457-1.778,14.951-8.461,27.769a2.334,2.334,0,0,0,3.494,2.928c12.235-9.422,21.456-15.351,26.693-13.652,3.356,1.088,6.05,5.618,8.736,14.689a2.334,2.334,0,0,0,2.237,1.671c.05,0,.1,0,.151,0a2.334,2.334,0,0,0,2.155-1.958c1.08-6.709,3.342-10.843,6.918-12.638,6.978-3.5,19.038,1.8,31.032,8.052A2.334,2.334,0,0,0,173.6,249.8c-8.237-10.854-11.388-18.73-9.633-24.079,1.6-4.887,7.378-8.563,18.725-11.923A2.335,2.335,0,0,0,184.355,211.323Zm-24.82,12.941c-1.8,5.5-.166,12.24,5.151,20.85-11.286-5.207-20.35-7.473-27.148-4.059a15.7,15.7,0,0,0-7.408,8.532c-2.565-6.127-5.435-9.322-9.255-10.56a10.964,10.964,0,0,0-3.411-.525c-2.764,0-5.911.928-9.645,2.819a82.139,82.139,0,0,0-9.978,6.207c4.74-9.921,6.973-17.361,4.041-23.2-1.429-2.846-4.034-5.043-7.888-6.632,9.206-2.616,14.789-4.437,16.442-9.064.98-2.742.382-5.968-2.148-10.638,4.955,1.911,8.232,2.092,10.826.769,4.423-2.255,5.492-8.124,6.931-17.767a17.147,17.147,0,0,0,10.537,8.157c5.139,1.305,11.158.215,17.894-3.241a65.5,65.5,0,0,0,10.3-6.721c-5.2,10.657-7.2,18.862-3.99,25.013,2.011,3.855,5.952,6.561,11.955,8.178C165.3,215.6,161.13,219.4,159.535,224.264Z" transform="translate(-82.906 -166.257)" fill="#fff"/></g></g><g transform="translate(35.151 76.796)"><path d="M221.168,275.686c-9.5-6.175-11.278-10.143-7.307-16.331a2.334,2.334,0,0,0-3.19-3.247c-1.34.827-5.415,3.345-6.827,2.768s-2.6-5.342-2.986-6.907a2.334,2.334,0,0,0-4.361-.467c-4.609,9.388-8.232,13.012-17.621,17.621a2.334,2.334,0,0,0,.472,4.362c1.949.478,3.135,1.211,3.526,2.178,1.128,2.791-2.755,8.961-5.875,13.919l-.017.026a2.334,2.334,0,0,0,1.988,3.564,2.357,2.357,0,0,0,1.256-.362c4.958-3.121,11.129-7,13.92-5.876.967.391,1.7,1.577,2.178,3.527a2.334,2.334,0,0,0,4.362.472c4.5-9.163,10.449-10.956,19.21-10.956a2.334,2.334,0,0,0,1.271-4.291Zm-22.346,9.158a7.019,7.019,0,0,0-2.926-2.238,7.631,7.631,0,0,0-2.89-.539,17.37,17.37,0,0,0-7.474,2.21c1.909-3.812,2.893-7.34,1.67-10.365a6.978,6.978,0,0,0-2.085-2.8,32.163,32.163,0,0,0,12.908-12.58c.989,2.328,2.23,3.924,4.054,4.669a7.225,7.225,0,0,0,5.264-.15c-.876,5.15,1.873,9.2,6,12.7A20.17,20.17,0,0,0,198.822,284.845Z" transform="translate(-176.629 -250.196)" fill="#fff"/></g></svg>